# xmcd
#
# Track frame offsets: 
#        150
#        27831
#        55930
#        83613
#        114531
#        157886
#        190805
#        216302
#        233712
#        255080
#        286685
#
# Disc length: 4127 seconds
#
# Revision: 2
# Processed by: cddbd v1.5.2PL0 Copyright (c) Steve Scherf et al.
# Submitted via: ExactAudioCopy v0.99pb5
#
DISCID=82101d0b
DTITLE=Blind Ego - Numb
DYEAR=2009
DGENRE=Progressive Rock
TTITLE0=Lost
TTITLE1=Guilt
TTITLE2=Numb
TTITLE3=Leave
TTITLE4=Death
TTITLE5=Change
TTITLE6=Seek
TTITLE7=Risk
TTITLE8=Torn
TTITLE9=Vow
TTITLE10=Change Reprise
EXTD=
EXTT0=
EXTT1=
EXTT2=
EXTT3=
EXTT4=
EXTT5=
EXTT6=
EXTT7=
EXTT8=
EXTT9=
EXTT10=
PLAYORDER=
